HIERARCHY
ROOT Hips
{
	OFFSET 0.00000 0.00000 0.00000
	CHANNELS 6 Xposition Yposition Zposition Zrotation Yrotation Xrotation 
	JOINT LHipJoint
	{
		OFFSET 0 0 0
		CHANNELS 3 Zrotation Yrotation Xrotation
		JOINT LeftUpLeg
		{
			OFFSET 1.38615 -1.80049 0.80104
			CHANNELS 3 Zrotation Yrotation Xrotation
			JOINT LeftLeg
			{
				OFFSET 2.50172 -6.87341 0.00000
				CHANNELS 3 Zrotation Yrotation Xrotation
				JOINT LeftFoot
				{
					OFFSET 2.67523 -7.35014 0.00000
					CHANNELS 3 Zrotation Yrotation Xrotation
					JOINT LeftToeBase
					{
						OFFSET 0.17446 -0.47932 2.13155
						CHANNELS 3 Zrotation Yrotation Xrotation
						End Site
						{
							OFFSET 0.00000 -0.00000 1.10023
						}
					}
				}
			}
		}
	}
	JOINT RHipJoint
	{
		OFFSET 0 0 0
		CHANNELS 3 Zrotation Yrotation Xrotation
		JOINT RightUpLeg
		{
			OFFSET -1.18047 -1.80049 0.80104
			CHANNELS 3 Zrotation Yrotation Xrotation
			JOINT RightLeg
			{
				OFFSET -2.59789 -7.13765 0.00000
				CHANNELS 3 Zrotation Yrotation Xrotation
				JOINT RightFoot
				{
					OFFSET -2.62125 -7.20183 0.00000
					CHANNELS 3 Zrotation Yrotation Xrotation
					JOINT RightToeBase
					{
						OFFSET -0.31287 -0.85960 2.07814
						CHANNELS 3 Zrotation Yrotation Xrotation
						End Site
						{
							OFFSET -0.00000 -0.00000 1.11766
						}
					}
				}
			}
		}
	}
	JOINT LowerBack
	{
		OFFSET 0 0 0
		CHANNELS 3 Zrotation Yrotation Xrotation
		JOINT Spine
		{
			OFFSET -0.01587 2.16157 -0.12309
			CHANNELS 3 Zrotation Yrotation Xrotation
			JOINT Spine1
			{
				OFFSET 0.04727 2.16674 -0.03569
				CHANNELS 3 Zrotation Yrotation Xrotation
				JOINT Neck
				{
					OFFSET 0 0 0
					CHANNELS 3 Zrotation Yrotation Xrotation
					JOINT Neck1
					{
						OFFSET -0.08586 1.60335 0.32783
						CHANNELS 3 Zrotation Yrotation Xrotation
						JOINT Head
						{
							OFFSET 0.07583 1.65857 -0.31618
							CHANNELS 3 Zrotation Yrotation Xrotation
							End Site
							{
								OFFSET 0.03386 1.69434 -0.14584
							}
						}
					}
				}
				JOINT LeftShoulder
				{
					OFFSET 0 0 0
					CHANNELS 3 Zrotation Yrotation Xrotation
					JOINT LeftArm
					{
						OFFSET 3.17393 1.01901 -0.52897
						CHANNELS 3 Zrotation Yrotation Xrotation
						JOINT LeftForeArm
						{
							OFFSET 5.25287 -0.00000 -0.00000
							CHANNELS 3 Zrotation Yrotation Xrotation
							JOINT LeftHand
							{
								OFFSET 3.51014 -0.00000 0.00000
								CHANNELS 3 Zrotation Yrotation Xrotation
								JOINT LeftFingerBase
								{
									OFFSET 0 0 0
									CHANNELS 3 Zrotation Yrotation Xrotation
									JOINT LeftHandIndex1
									{
										OFFSET 0.70618 -0.00000 -0.00000
										CHANNELS 3 Zrotation Yrotation Xrotation
										End Site
										{
											OFFSET 0.56934 -0.00000 -0.00000
										}
									}
								}
								JOINT LThumb
								{
									OFFSET 0 0 0
									CHANNELS 3 Zrotation Yrotation Xrotation
									End Site
									{
										OFFSET 0.57803 -0.00000 0.57803
									}
								}
							}
						}
					}
				}
				JOINT RightShoulder
				{
					OFFSET 0 0 0
					CHANNELS 3 Zrotation Yrotation Xrotation
					JOINT RightArm
					{
						OFFSET -2.99471 1.26495 -0.61125
						CHANNELS 3 Zrotation Yrotation Xrotation
						JOINT RightForeArm
						{
							OFFSET -5.28721 -0.00000 -0.00000
							CHANNELS 3 Zrotation Yrotation Xrotation
							JOINT RightHand
							{
								OFFSET -3.50544 -0.00000 0.00000
								CHANNELS 3 Zrotation Yrotation Xrotation
								JOINT RightFingerBase
								{
									OFFSET 0 0 0
									CHANNELS 3 Zrotation Yrotation Xrotation
									JOINT RightHandIndex1
									{
										OFFSET -0.88500 -0.00000 -0.00000
										CHANNELS 3 Zrotation Yrotation Xrotation
										End Site
										{
											OFFSET -0.71351 -0.00000 -0.00000
										}
									}
								}
								JOINT RThumb
								{
									OFFSET 0 0 0
									CHANNELS 3 Zrotation Yrotation Xrotation
									End Site
									{
										OFFSET -0.72440 -0.00000 0.72440
									}
								}
							}
						}
					}
				}
			}
		}
	}
}
MOTION
Frames: 8
Frame Time: 0.0952381
0.00 0.00 0.00 0 0 0 0 0 0 -21 0 0 0 0 0 0 0 0 0 0 0 0 0 0 21 0 0 0 0 0 0 0 0 0 0 0 0 0 0 0 0 0 0 0 0 0 0 -16 0 0 21 0 0 11 0 0 0 -8 0 0 0 0 0 0 0 0 0 0 0 0 0 0 0 0 0 0 0 0 8 0 0 0 0 0 0 0 0 0 0 0 0 0 0 0 0 0
0.00 0.00 0.00 3.9794 3.3359 1.5331 0.0000 0.0000 0.0000 -28.0643 10.2283 6.6768 0.0648 1.6422 4.5178 0.2571 -10.7283 -11.0119 0.0333 -1.1771 -3.2362 0.0000 0.0000 0.0000 16.0955 4.0793 -36.4006 -2.5279 -9.8885 28.6164 -0.3138 -3.6448 -12.5636 -0.4767 4.4280 -12.2841 -7.6178 -4.8957 -2.4290 4.1723 -6.4087 -0.7770 8.3281 -3.2865 1.8712 -7.4026 -0.9680 -23.7871 7.9160 -0.4231 13.8484 3.8450 0.2467 8.2050 0.0000 -0.0000 0.0000 -87.4384 -23.5854 99.9022 78.2024 -59.4675 -49.8012 -0.0000 0.0000 -82.5501 38.2009 59.6518 34.1810 -7.1250 0.0000 -0.0000 174.2779 5.3771 5.1873 0.0000 -0.0000 0.0000 79.8552 -1.5368 60.4829 -88.4865 59.9913 -58.6893 0.0000 -0.0000 -0.1295 -56.4464 16.5946 -23.2975 7.1250 -0.0000 -0.0000 -17.7230 -2.7714 -17.7275
0.00 0.00 0.00 2.6240 6.1422 5.3351 0.0000 0.0000 0.0000 -25.6677 7.6623 10.2322 0.2201 3.0198 8.3340 -0.1807 -10.6756 -4.1929 1.5188 -7.7823 -22.0547 0.0000 0.0000 0.0000 18.8813 6.3661 -32.5275 -1.9833 -8.8313 25.2689 -0.0933 -5.2399 -9.9063 -0.5845 4.8952 -13.6100 -4.1498 -5.4392 -1.3270 4.9156 -7.2333 -1.5904 7.2536 -3.6107 0.2487 -7.4899 -1.9447 -22.2074 4.8760 -1.3544 18.6382 2.7438 -0.5981 9.6448 0.0000 -0.0000 0.0000 -89.4422 -16.3720 84.0757 95.6014 -59.8811 -64.8490 -0.0000 0.0000 -63.3087 19.7471 56.2013 16.6104 -7.1250 0.0000 -0.0000 10.6941 -3.7414 -169.8450 0.0000 -0.0000 0.0000 74.1093 5.7444 62.2716 -99.6834 59.6427 -68.3760 0.0000 0.0000 15.8631 -47.9246 22.8929 -23.3111 7.1250 -0.0000 -0.0000 -11.2402 1.6936 -11.7942
0.00 0.00 0.00 1.9152 6.0057 5.9460 0.0000 0.0000 0.0000 -23.6672 4.2750 3.2141 1.9599 8.7821 25.1160 -0.5170 -12.8808 7.5421 2.3916 -9.6381 -27.8127 0.0000 0.0000 0.0000 20.3094 6.5886 -29.1060 -2.1571 -9.1859 26.3785 -0.0423 -4.6340 -7.9537 -0.0322 -1.1588 3.1858 -2.5965 -3.8758 -1.7155 5.1040 -5.1307 -1.9924 6.6550 -2.5301 -0.3962 -7.7425 -2.3197 -22.9249 2.3573 -1.1294 22.1885 1.9585 -0.8828 11.0476 -0.0000 0.0000 0.0000 -88.4680 -13.7139 76.3533 107.4138 -58.8226 -75.0212 -0.0000 0.0000 -56.4534 16.5288 50.8848 12.9663 -7.1250 0.0000 -0.0000 11.1541 -9.4552 -170.6460 -0.0000 0.0000 0.0000 73.6639 7.6473 60.8749 -108.6000 58.6516 -76.0351 0.0000 0.0000 21.6315 -39.0247 25.1582 -19.0118 7.1250 -0.0000 -0.0000 -5.5773 1.0454 -5.7050
0.00 0.00 0.00 -1.1878 5.6548 5.0152 0.0000 0.0000 0.0000 -18.1159 0.5381 -4.6434 5.0414 13.4303 41.0012 0.1258 -14.7862 22.2867 0.4820 -4.4520 -12.3520 0.0000 0.0000 0.0000 24.7551 4.6986 -25.4168 -2.1566 -9.1850 26.3758 -0.2298 -2.7206 -10.4792 -0.0425 1.3313 -3.6607 1.0624 -2.3596 -0.8859 5.5629 -3.1023 -1.6475 5.1419 -1.5335 -0.9450 -7.4756 -1.9883 -22.2011 0.8610 -0.3978 23.4766 1.4929 -0.7539 11.3600 -0.0000 0.0000 0.0000 -85.1445 -13.5406 72.0692 115.1432 -57.4711 -81.5898 -0.0000 0.0000 -53.1051 2.8520 51.5063 2.2329 -7.1250 0.0000 -0.0000 17.0199 -11.9565 -166.2389 -0.0000 0.0000 0.0000 73.5966 10.3907 62.6964 -109.0725 58.5799 -76.4385 0.0000 0.0000 20.8586 -32.7521 22.6916 -13.9368 7.1250 -0.0000 -0.0000 -2.3103 -3.5627 -2.1641
0.00 0.00 0.00 -3.1601 5.2199 3.6412 0.0000 0.0000 0.0000 -12.0035 -2.4735 -16.7837 9.5252 17.1340 57.8892 -0.4837 -13.1619 10.1208 0.6031 -4.9712 -13.8264 0.0000 0.0000 0.0000 27.7453 4.0665 -18.8869 -2.1236 -9.1189 26.1681 -0.5034 -3.0393 -14.8566 -0.0243 1.0074 -2.7691 2.7845 -0.1243 0.2664 5.0919 -0.1037 -0.6607 3.6803 -0.0496 -0.8247 -7.6296 -2.5603 -21.5035 0.8319 -1.1669 25.7152 1.3985 -1.1673 12.1298 0.0000 -0.0000 0.0000 -79.8721 -12.1049 66.6811 116.6190 -57.1456 -82.8318 -0.0000 0.0000 -48.8387 -18.8723 60.3547 -16.5462 -7.1250 0.0000 -0.0000 23.6897 -6.4781 -157.0220 0.0000 -0.0000 0.0000 76.5730 14.1810 66.4397 -96.0090 59.8631 -65.2016 0.0000 0.0000 1.5686 -30.7529 20.4115 -11.7233 7.1250 -0.0000 -0.0000 -1.4230 -6.5724 -1.2512
0.00 0.00 0.00 -3.8097 5.5997 3.1095 0.0000 0.0000 0.0000 -9.0568 -5.0718 -23.9779 9.5716 17.1618 58.0466 -0.0655 -6.4201 -2.5022 0.8482 -5.8739 -16.4191 0.0000 0.0000 0.0000 28.9716 3.1544 -15.0456 -2.1334 -9.1386 26.2299 -0.7226 -4.0206 -18.0131 -0.3091 3.5745 -9.8827 3.3034 0.7521 0.7028 4.5850 1.0595 -0.0672 2.8480 0.5300 -0.4910 -9.3872 -3.1389 -20.4422 2.6437 -2.0186 25.9729 2.2454 -1.4850 12.1063 0.0000 0.0000 0.0000 -78.9437 -8.0734 61.2555 106.3986 -58.9591 -74.1520 -0.0000 0.0000 -31.5305 -30.7437 61.0697 -27.4999 -7.1250 0.0000 -0.0000 153.2629 6.5088 26.7118 0.0000 0.0000 0.0000 81.3235 15.0612 66.5272 -77.6934 59.4199 -49.3629 0.0000 -0.0000 -23.7436 -24.9671 9.3129 -4.3090 7.1250 -0.0000 -0.0000 1.4139 -19.7278 0.8539
0.00 0.00 0.00 -4.5605 6.1813 2.8791 0.0000 0.0000 0.0000 -6.6447 -7.2476 -27.7176 6.5099 14.9049 46.9955 0.2135 -3.2878 -8.2136 1.0258 -6.4428 -18.0746 0.0000 0.0000 0.0000 29.9817 2.1964 -11.6999 -2.2544 -9.3771 26.9821 -1.2028 -3.5723 -22.2855 -0.1751 2.6959 -7.4332 4.0665 1.5032 0.9349 4.1325 2.0466 0.5180 1.9471 1.0286 -0.0014 -10.7110 -3.8911 -19.9428 3.8473 -3.0480 25.4943 2.7500 -1.9073 11.9416 -0.0000 -0.0000 0.0000 -81.6106 -4.2204 52.0259 87.6774 -59.9796 -57.9887 -0.0000 0.0000 -16.2739 -26.8265 63.0817 -24.2717 -7.1250 0.0000 -0.0000 154.7075 7.2944 24.4627 -0.0000 -0.0000 0.0000 86.8022 15.3637 61.3588 -51.8365 53.7099 -27.6477 0.0000 -0.0000 -47.5705 -8.2910 -3.3953 0.4945 7.1250 -0.0000 -0.0000 14.8289 -33.1360 4.4397
